# AST/ASF file generated using VICON BodyLanguage
# -----------------------------------------------
:version 1.10
:name VICON
:units
  mass 1.0
  length 0.45
  angle deg
:documentation
   .ast/.asf automatically generated from VICON data using
   VICON BodyBuilder and BodyLanguage model FoxedUp or BRILLIANT.MOD
:root
   order TX TY TZ RX RY RZ
   axis XYZ
   position 0 0 0  
   orientation 0 0 0 
:bonedata
  begin
     id 1 
     name lhipjoint
     direction 0.702568 -0.596508 0.388042 
     length 2.56661 
     axis 0 0 0  XYZ
  end
  begin
     id 2 
     name lfemur
     direction 0.34202 -0.939693 0  
     length 6.58374  
     axis 0 0 20  XYZ
    dof rx ry rz
    limits (-160.0 20.0)
           (-70.0 70.0)
           (-60.0 70.0)
  end
  begin
     id 3 
     name ltibia
     direction 0.34202 -0.939693 0   
     length 6.62538   
     axis 0 0 20   XYZ
    dof rx
    limits (-10.0 170.0)
  end
  begin
     id 4 
     name lfoot
     direction 0.10455 -0.287249 0.952133   
     length 2.26699   
     axis -90 7.62852e-016 20   XYZ
    dof rx rz
    limits (-45.0 90.0)
           (-70.0 20.0)
  end
  begin
     id 5 
     name ltoes
     direction 1.53572e-011 -4.22322e-011 1   
     length 1.12949   
     axis -90 7.62852e-016 20   XYZ
    dof rx
    limits (-90.0 20.0)
  end
  begin
     id 6 
     name rhipjoint
     direction -0.728055 -0.574632 0.373811   
     length 2.66432  
     axis 0 0 0  XYZ 
  end
  begin
     id 7 
     name rfemur
     direction -0.34202 -0.939693 0   
     length 6.66732   
     axis 0 0 -20   XYZ
    dof rx ry rz
    limits (-160.0 20.0)
           (-70.0 70.0)
           (-70.0 60.0)
  end
  begin
     id 8 
     name rtibia
     direction -0.34202 -0.939693 0   
     length 6.59288   
     axis 0 0 -20   XYZ
    dof rx
    limits (-10.0 170.0)
 end
 begin
     id 9 
     name rfoot
     direction -0.119193 -0.327479 0.93731   
     length 2.38061  
     axis -90 -7.62852e-016 -20   XYZ
    dof rx rz
    limits (-45.0 90.0)
           (-20.0 70.0)
  end
  begin
     id 10 
     name rtoes
     direction -1.53547e-011 -4.21827e-011 1   
     length 1.17899   
     axis -90 -7.62852e-016 -20   XYZ
    dof rx
    limits (-90.0 20.0)
  end
  begin
     id 11 
     name lowerback
     direction -0.000416114 0.999912 -0.0132284   
     length 2.12109   
     axis 0 0 0   XYZ
    dof rx ry rz
    limits (-20.0 45.0)
           (-30.0 30.0)
           (-30.0 30.0)
  end
  begin
     id 12 
     name upperback
     direction -0.00136371 0.99809 0.0617608   
     length 2.10067   
     axis 0 0 0   XYZ
    dof rx ry rz
    limits (-20.0 45.0)
           (-30.0 30.0)
           (-30.0 30.0)
  end
  begin
     id 13 
     name thorax
     direction -3.43026e-005 0.997776 0.0666515   
     length 2.10618   
     axis 0 0 0   XYZ
    dof rx ry rz
    limits (-20.0 45.0)
           (-30.0 30.0)
           (-30.0 30.0)
  end
  begin
     id 14 
     name lowerneck
     direction 0.0398646 0.998418 0.0396592   
     length 1.83817   
     axis 0 0 0   XYZ
    dof rx ry rz
    limits (-20.0 45.0)
           (-30.0 30.0)
           (-30.0 30.0)
  end
  begin
     id 15 
     name upperneck
     direction -0.0367268 0.961527 -0.272244   
     length 1.81975   
     axis 0 0 0   XYZ
    dof rx ry rz
    limits (-20.0 45.0)
           (-30.0 30.0)
           (-30.0 30.0)
  end
  begin
     id 16
     name head
     direction -0.0182665 0.99536 -0.0944669  
     length 1.86026  
     axis 0 0 0   XYZ
    dof rx ry rz
    limits (-20.0 45.0)
           (-30.0 30.0)
           (-30.0 30.0)
  end
  begin
     id 17 
     name lclavicle
     direction 0.924239 0.361045 0.124212  
     length 3.26878  
     axis 0 0 0   XYZ
    dof ry rz
    limits (-20.0 10.0)
           (0.0 20.0)
  end
  begin
     id 18 
     name lhumerus
     direction 1 -4.48968e-011 -2.56583e-027   
     length 4.58538   
     axis 180 -30 -90   XYZ
    dof rx ry rz
    limits (-60.0 90.0)
           (-90.0 90.0)
           (-90.0 90.0)
  end
  begin
     id 19
     name lradius
     direction 1 -4.4898e-011 -5.50375e-027   
     length 2.68935   
     axis 180 -30 -90   XYZ
    dof rx
    limits (-10.0 170.0)
  end
  begin
     id 20
     name lwrist
     direction 1 -4.48939e-011 -1.48955e-026   
     length 1.34468   
     axis 9.0955e-015 90 90   XYZ
    dof ry
    limits (-180.0 0.0)
 end
  begin
     id 21 
     name lhand
     direction 1 -4.48936e-011 -2.97907e-026   
     length 0.585058   
     axis 1.90115e-014 90 90   XYZ
    dof rx rz
    limits (-90.0 90.0)
           (-45.0 45.0)
  end
  begin
     id 22 
     name lfingers
     direction 1 -4.49082e-011 -5.96235e-026   
     length 0.471689   
     axis 3.80223e-014 90 90   XYZ
    dof rx
    limits (0.0 90.0)
  end
  begin
     id 23
     name lthumb
     direction 0.707107 -6.3489e-011 0.707107   
     length 0.677253   
     axis -90 45 -3.84942e-014   XYZ
    dof rx rz
    limits (-45.0 45.0)
           (-45.0 45.0)
  end
  begin
     id 24 
     name rclavicle
     direction -0.923098 0.371783 0.0983239   
     length 3.19656  
     axis 0 0 0   XYZ 
    dof ry rz
    limits (-10.0 20.0)
           (-20.0 0.0)
  end
  begin
     id 25 
     name rhumerus
     direction -1 -4.48976e-011 -2.5492e-027  
     length 4.4745   
     axis 180 30 90   XYZ
    dof rx ry rz
    limits (-90.0 60.0)
           (-90.0 90.0)
           (-90.0 90.0)
  end
  begin
     id 26 
     name rradius
     direction -1 -4.48941e-011 -4.36555e-027   
     length 2.93896   
     axis 180 30 90   XYZ
    dof rx
    limits (-10.0 170.0)
  end
  begin
     id 27 
     name rwrist
     direction -1 -4.49044e-011 -1.49032e-026   
     length 1.46948   
     axis 9.0955e-015 -90 -90   XYZ
    dof ry
    limits (-180.0 0.0)
  end
  begin
     id 28
     name rhand
     direction -1 -4.48826e-011 -2.97749e-026   
     length 0.405092   
     axis 1.90115e-014 -90 -90   XYZ
    dof rx rz
    limits (-90.0 90.0)
           (-45.0 45.0)
  end
  begin
     id 29
     name rfingers
     direction -1 -4.49209e-011 -5.96602e-026   
     length 0.326596   
     axis 3.80223e-014 -90 -90   XYZ
    dof rx
    limits (0.0 90.0)
  end
  begin
     id 30
     name rthumb
     direction -0.707107 -6.34776e-011 0.707107   
     length 0.468928   
     axis -90 -45 3.84942e-014   XYZ
    dof rx rz
    limits (-45.0 45.0)
           (-45.0 45.0)
  end
:hierarchy
  begin
    root lhipjoint rhipjoint lowerback
    lhipjoint lfemur
    lfemur ltibia
    ltibia lfoot
    lfoot ltoes
    rhipjoint rfemur
    rfemur rtibia
    rtibia rfoot
    rfoot rtoes
    lowerback upperback
    upperback thorax
    thorax lowerneck lclavicle rclavicle
    lowerneck upperneck
    upperneck head
    lclavicle lhumerus
    lhumerus lradius
    lradius lwrist
    lwrist lhand lthumb
    lhand lfingers
    rclavicle rhumerus
    rhumerus rradius
    rradius rwrist
    rwrist rhand rthumb
    rhand rfingers
  end

#!OML:ASF H:\Punching\Project 1\Capture day 1\Session 1\female.ASF
:FULLY-SPECIFIED
:DEGREES
341
root -1.27217 14.7846 -2.74759 16.8371 -23.3451 -5.4943
lowerback -3.18279 2.71343 7.03485
upperback -5.99593 3.53479 -1.34161
thorax -3.95527 1.43134 -5.33245
lowerneck 10.1734 17.9548 29.3978
upperneck 13.6153 30.3251 -24.0405
head 11.2834 15.5567 -9.0973
rclavicle 2.68608e-014 -9.54166e-015
rhumerus -4.412 33.9055 -74.4557
rradius 130.1
rwrist -16.2934
rhand -26.9466 10.1927
rfingers 7.12502
rthumb -0.36856 -19.7867
lclavicle 2.68608e-014 -9.54166e-015
lhumerus -5.60387 -13.72 60.1943
lradius 137.353
lwrist -11.1585
lhand -44.6411 2.48132
lfingers 7.12502
lthumb -17.4382 31.7191
rfemur -6.36327 7.22499 23.1584
rtibia 28.1315
rfoot -32.5464 -25.7618
rtoes -7.50297
lfemur -48.255 -0.265646 1.55981
ltibia 41.2968
lfoot -6.35133 16.497
ltoes 8.83904
342
root -1.28078 14.7925 -2.77252 16.7847 -23.4168 -5.50436
lowerback -3.24543 2.75005 7.14937
upperback -5.97631 3.57819 -1.32358
thorax -3.88894 1.45199 -5.37312
lowerneck 10.2002 17.9529 29.3505
upperneck 13.6056 30.3295 -24.0588
head 11.2721 15.5592 -9.10123
rclavicle -3.25013e-014 -2.94201e-014
rhumerus -4.54339 33.8705 -74.4229
rradius 130.074
rwrist -16.3792
rhand -26.9503 10.1421
rfingers 7.12502
rthumb -0.37208 -19.8373
lclavicle -3.25013e-014 -2.94201e-014
lhumerus -5.56752 -13.7594 60.3269
lradius 137.328
lwrist -11.2251
lhand -44.6544 2.55746
lfingers 7.12502
lthumb -17.4511 31.7941
rfemur -6.39699 7.2371 23.2127
rtibia 28.1088
rfoot -32.4112 -25.726
rtoes -7.44599
lfemur -48.1027 -0.699175 1.83357
ltibia 41.0522
lfoot -6.21269 17.3325
ltoes 9.64648
343
root -1.28845 14.8011 -2.79199 16.7499 -23.5309 -5.52377
lowerback -3.34403 2.80534 7.26617
upperback -5.96703 3.64361 -1.30242
thorax -3.81004 1.48389 -5.40963
lowerneck 10.2371 17.95 29.3187
upperneck 13.6436 30.3394 -24.0451
head 11.2743 15.5661 -9.09555
rclavicle -5.00937e-014 -7.15625e-015
rhumerus -4.6664 33.8427 -74.4009
rradius 130.031
rwrist -16.4728
rhand -26.9353 10.1054
rfingers 7.12502
rthumb -0.357551 -19.8741
lclavicle -5.00937e-014 -7.15625e-015
lhumerus -5.58063 -13.8227 60.485
lradius 137.328
lwrist -11.2504
lhand -44.651 2.60852
lfingers 7.12502
lthumb -17.4478 31.8455
rfemur -6.41683 7.24138 23.2496
rtibia 28.0493
rfoot -32.2531 -25.6563
rtoes -7.40415
lfemur -47.9411 -1.16474 2.12725
ltibia 40.731
lfoot -6.1294 18.3468
ltoes 10.9525
344
root -1.29534 14.8097 -2.80676 16.7306 -23.6864 -5.55262
lowerback -3.47655 2.87897 7.38723
upperback -5.96622 3.73044 -1.28226
thorax -3.71743 1.52669 -5.44727
lowerneck 10.2886 17.9432 29.3071
upperneck 13.7223 30.35 -24.0002
head 11.2864 15.5759 -9.08279
rclavicle 3.44643e-014 5.1684e-015
rhumerus -4.77407 33.8153 -74.3905
rradius 129.966
rwrist -16.5489
rhand -26.9001 10.0867
rfingers 7.12502
rthumb -0.323627 -19.8928
lclavicle 3.44643e-014 5.1684e-015
lhumerus -5.62844 -13.9095 60.6528
lradius 137.348
lwrist -11.2386
lhand -44.6406 2.63632
lfingers 7.12502
lthumb -17.4378 31.8742
rfemur -6.42848 7.25252 23.275
rtibia 27.9673
rfoot -32.0816 -25.5736
rtoes -7.38119
lfemur -47.7748 -1.63299 2.42619
ltibia 40.3746
lfoot -6.15764 19.4567
ltoes 12.6497
345
root -1.30162 14.8178 -2.81749 16.7209 -23.8767 -5.58701
lowerback -3.62883 2.96601 7.5041
upperback -5.97922 3.83339 -1.26199
thorax -3.62594 1.5773 -5.48099
lowerneck 10.3561 17.9313 29.3189
upperneck 13.8473 30.3613 -23.9224
head 11.3103 15.5889 -9.06304
rclavicle 5.96168e-014 -4.37326e-015
rhumerus -4.87285 33.7941 -74.3964
rradius 129.875
rwrist -16.5774
rhand -26.8692 10.0944
rfingers 7.12502
rthumb -0.293742 -19.8851
lclavicle 5.96168e-014 -4.37326e-015
lhumerus -5.71111 -14.0167 60.8223
lradius 137.385
lwrist -11.2054
lhand -44.6325 2.66508
lfingers 7.12502
lthumb -17.4299 31.9036
rfemur -6.43324 7.26873 23.2897
rtibia 27.8756
rfoot -31.9064 -25.4846
rtoes -7.37415
lfemur -47.6047 -2.08183 2.71208
ltibia 40.0225
lfoot -6.33588 20.5859
ltoes 14.527
346
root -1.30737 14.8251 -2.825 16.714 -24.093 -5.62546
lowerback -3.79253 3.06152 7.61681
upperback -6.00102 3.94635 -1.2432
thorax -3.53574 1.63277 -5.51273
lowerneck 10.4357 17.9154 29.3562
upperneck 14.0053 30.3741 -23.8228
head 11.3448 15.605 -9.03952
rclavicle 3.61353e-014 6.75868e-015
rhumerus -4.95605 33.78 -74.4186
rradius 129.764
rwrist -16.539
rhand -26.8481 10.1108
rfingers 7.12502
rthumb -0.273394 -19.8687
lclavicle 3.61353e-014 6.75868e-015
lhumerus -5.81396 -14.1285 60.9782
lradius 137.431
lwrist -11.1646
lhand -44.633 2.69302
lfingers 7.12502
lthumb -17.4305 31.9315
rfemur -6.43034 7.28908 23.2967
rtibia 27.7849
rfoot -31.7364 -25.3889
rtoes -7.38052
lfemur -47.4264 -2.49879 2.97573
ltibia 39.7024
lfoot -6.65877 21.6702
ltoes 16.3568
347
root -1.31263 14.8317 -2.83011 16.7027 -24.3228 -5.66574
lowerback -3.95058 3.1592 7.7223
upperback -6.03163 4.06252 -1.22443
thorax -3.45771 1.68936 -5.5404
lowerneck 10.5259 17.8969 29.4158
upperneck 14.1865 30.3894 -23.7093
head 11.3882 15.6245 -9.01408
rclavicle -1.90088e-014 0
rhumerus -5.02539 33.7757 -74.4566
rradius 129.637
rwrist -16.4349
rhand -26.8418 10.142
rfingers 7.12502
rthumb -0.267311 -19.8376
lclavicle -1.90088e-014 0
lhumerus -5.93103 -14.2303 61.1136
lradius 137.481
lwrist -11.1313
lhand -44.6434 2.71777
lfingers 7.12502
lthumb -17.4405 31.9554
rfemur -6.41694 7.30728 23.2982
rtibia 27.7013
rfoot -31.5769 -25.2844
rtoes -7.39153
lfemur -47.234 -2.90306 3.22649
ltibia 39.4281
lfoot -7.10711 22.6695
ltoes 17.9809
348
root -1.31741 14.8373 -2.83351 16.6782 -24.5535 -5.70276
lowerback -4.09877 3.25569 7.82281
upperback -6.06343 4.17757 -1.20874
thorax -3.38649 1.74522 -5.56859
lowerneck 10.6238 17.8758 29.4922
upperneck 14.3696 30.4044 -23.594
head 11.4337 15.6454 -8.99068
rclavicle 1.59804e-014 2.54444e-014
rhumerus -5.07706 33.7783 -74.5078
rradius 129.506
rwrist -16.2641
rhand -26.8579 10.163
rfingers 7.12502
rthumb -0.282872 -19.8165
lclavicle 1.59804e-014 2.54444e-014
lhumerus -6.03822 -14.3125 61.2126
lradius 137.525
lwrist -11.1206
lhand -44.6737 2.76063
lfingers 7.12502
lthumb -17.4696 31.9957
rfemur -6.38934 7.31343 23.293
rtibia 27.6302
rfoot -31.4318 -25.1692
rtoes -7.41578
lfemur -47.0202 -3.33052 3.47959
ltibia 39.1988
lfoot -7.64159 23.5698
ltoes 19.2905
349
root -1.32172 14.8421 -2.83593 16.6339 -24.7727 -5.7327
lowerback -4.2298 3.34471 7.91272
upperback -6.08641 4.28367 -1.19521
thorax -3.31717 1.79723 -5.5936
lowerneck 10.7113 17.8598 29.58
upperneck 14.5382 30.4253 -23.4907
head 11.4823 15.6685 -8.96934
rclavicle 4.56863e-014 3.37934e-014
rhumerus -5.09608 33.7803 -74.5596
rradius 129.38
rwrist -16.0661
rhand -26.8777 10.1937
rfingers 7.12502
rthumb -0.301951 -19.7858
lclavicle 4.56863e-014 3.37934e-014
lhumerus -6.11824 -14.3572 61.2712
lradius 137.563
lwrist -11.1289
lhand -44.7112 2.81709
lfingers 7.12502
lthumb -17.5057 32.0489
rfemur -6.34551 7.30211 23.2819
rtibia 27.5755
rfoot -31.3047 -25.0447
rtoes -7.4448
lfemur -46.7801 -3.80347 3.74384
ltibia 39.0051
lfoot -8.2122 24.3748
ltoes 20.2625
350
root -1.32552 14.8458 -2.83813 16.5654 -24.9693 -5.75367
lowerback -4.33005 3.42495 7.99415
upperback -6.10596 4.38059 -1.18511
thorax -3.26292 1.84441 -5.6192
lowerneck 10.7961 17.8418 29.6708
upperneck 14.6864 30.4408 -23.396
head 11.5243 15.6891 -8.95221
rclavicle -8.54836e-014 -3.89618e-014
rhumerus -5.10574 33.7783 -74.619
rradius 129.271
rwrist -15.8693
rhand -26.8942 10.2497
rfingers 7.12502
rthumb -0.317941 -19.7298
lclavicle -8.54836e-014 -3.89618e-014
lhumerus -6.17481 -14.3761 61.2902
lradius 137.593
lwrist -11.1604
lhand -44.7608 2.87384
lfingers 7.12502
lthumb -17.5535 32.1014
rfemur -6.28476 7.27563 23.2675
rtibia 27.5415
rfoot -31.203 -24.9171
rtoes -7.46882
lfemur -46.515 -4.34871 4.03442
ltibia 38.8334
lfoot -8.79583 25.0961
ltoes 20.9297
351
root -1.32892 14.8481 -2.84052 16.47 -25.1354 -5.76079
lowerback -4.39718 3.49335 8.06118
upperback -6.12006 4.46468 -1.17858
thorax -3.22387 1.88521 -5.64261
lowerneck 10.876 17.8234 29.7621
upperneck 14.8068 30.452 -23.3146
head 11.5585 15.7073 -8.94003
rclavicle 1.20692e-014 -2.78299e-015
rhumerus -5.11243 33.7705 -74.6825
rradius 129.192
rwrist -15.703
rhand -26.8952 10.3201
rfingers 7.12502
rthumb -0.318821 -19.6594
lclavicle 1.20692e-014 -2.78299e-015
lhumerus -6.21071 -14.3686 61.2754
lradius 137.621
lwrist -11.1945
lhand -44.8052 2.93266
lfingers 7.12502
lthumb -17.5962 32.1564
rfemur -6.20704 7.23297 23.2483
rtibia 27.5304
rfoot -31.1303 -24.7914
rtoes -7.47918
lfemur -46.2315 -4.97477 4.35366
ltibia 38.6724
lfoot -9.37289 25.7341
ltoes 21.339
352
root -1.33208 14.8492 -2.84349 16.3478 -25.2661 -5.75172
lowerback -4.43217 3.54748 8.11117
upperback -6.12675 4.53271 -1.17596
thorax -3.19804 1.91825 -5.66288
lowerneck 10.9462 17.8065 29.8482
upperneck 14.8983 30.459 -23.2451
head 11.5836 15.7223 -8.93101
rclavicle 2.7628e-015 -1.43125e-014
rhumerus -5.11741 33.7582 -74.75
rradius 129.151
rwrist -15.5869
rhand -26.8688 10.3978
rfingers 7.12502
rthumb -0.293382 -19.5818
lclavicle 2.7628e-015 -1.43125e-014
lhumerus -6.21732 -14.3355 61.2239
lradius 137.634
lwrist -11.2313
lhand -44.8579 2.99719
lfingers 7.12502
lthumb -17.6469 32.2164
rfemur -6.11352 7.18367 23.2251
rtibia 27.5416
rfoot -31.0888 -24.6792
rtoes -7.4757
lfemur -45.9416 -5.67784 4.70164
ltibia 38.5144
lfoot -9.9335 26.2956
ltoes 21.5736
